<svg aria-hidden="true" xmlns="http://www.w3.org/2000/svg"><defs><symbol id="icon-bulb" viewBox="0 0 32 32"><path d="M16 0C9.924 0 5 4.924 5 11c0 4.031 3.688 8.303 5.031 12.055C12.034 28.65 11.812 32 16 32c4.25 0 3.965-3.334 5.969-8.922C23.316 19.318 27 15 27 11c0-6.076-4.926-11-11-11zm2.592 27.176-4.958.619a43.56 43.56 0 0 1-.598-1.893l-.009-.031 6.188-.773c-.088.295-.182.605-.264.883-.131.449-.248.839-.359 1.195zm-5.856-2.268A60 60 0 0 0 12.121 23h7.766c-.123.359-.246.719-.352 1.059l-6.799.849zM16 30c-1.013 0-1.479-.117-1.997-1.25l4.238-.531C17.627 29.873 17.18 30 16 30zm4.672-9h-9.333c-.498-1.08-1.096-2.16-1.686-3.217C8.348 15.448 7 13.033 7 11c0-4.963 4.037-9 9-9s9 4.037 9 9c0 2.018-1.35 4.446-2.656 6.795-.584 1.053-1.178 2.131-1.672 3.205zM16 5a.5.5 0 0 1 0 1c-2.757 0-5 2.243-5 5a.5.5 0 0 1-1 0c0-3.309 2.691-6 6-6z"/></symbol><symbol id="icon-pencil" viewBox="0 0 32 32"><path d="M27 0a5 5 0 0 1 4 8l-2 2-7-7 2-2c.836-.628 1.874-1 3-1zM2 23l-2 9 9-2 18.5-18.5-7-7L2 23zm20.362-11.638-14 14-1.724-1.724 14-14 1.724 1.724z"/></symbol><symbol id="icon-box-add" viewBox="0 0 32 32"><path d="M26 2H6L0 8v21a1 1 0 0 0 1 1h30a1 1 0 0 0 1-1V8l-6-6zM16 26 6 18h6v-6h8v6h6l-10 8zM4.828 6l2-2h18.343l2 2H4.828z"/></symbol><symbol id="icon-bubble2" viewBox="0 0 32 32"><path d="M16 6c-1.717 0-3.375.271-4.928.804-1.46.502-2.76 1.211-3.863 2.108C5.14 10.593 4 12.755 4 15c0 1.259.35 2.481 1.039 3.63.711 1.185 1.781 2.268 3.093 3.133a3.996 3.996 0 0 1 1.755 2.747c.056.375.091.753.105 1.129.233-.194.461-.401.684-.624a4 4 0 0 1 3.333-1.14c.655.083 1.325.126 1.99.126 1.717 0 3.375-.271 4.928-.804 1.46-.502 2.76-1.211 3.863-2.108 2.069-1.681 3.209-3.843 3.209-6.088s-1.14-4.407-3.209-6.088c-1.104-.897-2.404-1.606-3.863-2.108a15.118 15.118 0 0 0-4.928-.804zm0-4c8.837 0 16 5.82 16 13s-7.163 13-16 13a19.66 19.66 0 0 1-2.495-.158C10.068 31.279 5.966 31.895 2 31.986v-.841C4.142 30.096 6 28.184 6 26c0-.305-.024-.604-.068-.897C2.313 22.72 0 19.079 0 15 0 7.82 7.163 2 16 2z"/></symbol><symbol id="icon-quotes-right" viewBox="0 0 32 32"><path d="M25 20a7 7 0 1 1 7-7l.031 1c0 7.732-6.268 14-14 14v-4a9.934 9.934 0 0 0 7.071-2.929c.364-.364.695-.75.995-1.157A7.081 7.081 0 0 1 25 20zM7 20a7 7 0 1 1 7-7l.031 1c0 7.732-6.268 14-14 14v-4a9.934 9.934 0 0 0 7.071-2.929c.364-.364.695-.75.995-1.157A7.081 7.081 0 0 1 7 20z"/></symbol><symbol id="icon-bin" viewBox="0 0 32 32"><path d="M4 10v20c0 1.1.9 2 2 2h18c1.1 0 2-.9 2-2V10H4zm6 18H8V14h2v14zm4 0h-2V14h2v14zm4 0h-2V14h2v14zm4 0h-2V14h2v14zM26.5 4H20V1.5c0-.825-.675-1.5-1.5-1.5h-7c-.825 0-1.5.675-1.5 1.5V4H3.5C2.675 4 2 4.675 2 5.5V8h26V5.5c0-.825-.675-1.5-1.5-1.5zM18 4h-6V2.025h6V4z"/></symbol><symbol id="icon-list2" viewBox="0 0 32 32"><path d="M12 2h20v4H12V2zm0 12h20v4H12v-4zm0 12h20v4H12v-4zM0 4a4 4 0 1 1 8 0 4 4 0 0 1-8 0zm0 12a4 4 0 1 1 8 0 4 4 0 0 1-8 0zm0 12a4 4 0 1 1 8 0 4 4 0 0 1-8 0z"/></symbol><symbol id="icon-plus" viewBox="0 0 32 32"><path d="M31 12H20V1a1 1 0 0 0-1-1h-6a1 1 0 0 0-1 1v11H1a1 1 0 0 0-1 1v6a1 1 0 0 0 1 1h11v11a1 1 0 0 0 1 1h6a1 1 0 0 0 1-1V20h11a1 1 0 0 0 1-1v-6a1 1 0 0 0-1-1z"/></symbol></defs></svg>